<svg width="250" height="240" viewBox="0 0 250 240" fill="none" xmlns="http://www.w3.org/2000/svg">
<g filter="url(#filter0_d_134_29092)">
<circle cx="124.65" cy="115" r="90" fill="black"/>
<circle cx="124.65" cy="115" r="89.6062" stroke="white" stroke-width="0.7875"/>
</g>
<path d="M99.9004 136.188C98.216 136.188 96.7741 135.588 95.5746 134.388C94.3751 133.189 93.7754 131.747 93.7754 130.063V99.4375C93.7754 97.7531 94.3751 96.3112 95.5746 95.1117C96.7741 93.9122 98.216 93.3125 99.9004 93.3125H148.9C150.585 93.3125 152.027 93.9122 153.226 95.1117C154.426 96.3112 155.025 97.7531 155.025 99.4375V130.063C155.025 131.747 154.426 133.189 153.226 134.388C152.027 135.588 150.585 136.188 148.9 136.188H99.9004ZM99.9004 130.063H148.9V99.4375H99.9004V130.063ZM112.15 127H136.65V120.875H112.15V127ZM102.963 117.813H109.088V111.688H102.963V117.813ZM112.15 117.813H118.275V111.688H112.15V117.813ZM121.338 117.813H127.463V111.688H121.338V117.813ZM130.525 117.813H136.65V111.688H130.525V117.813ZM139.713 117.813H145.838V111.688H139.713V117.813ZM102.963 108.625H109.088V102.5H102.963V108.625ZM112.15 108.625H118.275V102.5H112.15V108.625ZM121.338 108.625H127.463V102.5H121.338V108.625ZM130.525 108.625H136.65V102.5H130.525V108.625ZM139.713 108.625H145.838V102.5H139.713V108.625Z" fill="white"/>
<defs>
<filter id="filter0_d_134_29092" x="0.000392914" y="-9.65" width="249.3" height="249.3" filterUnits="userSpaceOnUse" color-interpolation-filters="sRGB">
<feFlood flood-opacity="0" result="BackgroundImageFix"/>
<feColorMatrix in="SourceAlpha" type="matrix" values="0 0 0 0 0 0 0 0 0 0 0 0 0 0 0 0 0 0 127 0" result="hardAlpha"/>
<feOffset/>
<feGaussianBlur stdDeviation="17.325"/>
<feComposite in2="hardAlpha" operator="out"/>
<feColorMatrix type="matrix" values="0 0 0 0 0 0 0 0 0 0 0 0 0 0 0 0 0 0 0.25 0"/>
<feBlend mode="normal" in2="BackgroundImageFix" result="effect1_dropShadow_134_29092"/>
<feBlend mode="normal" in="SourceGraphic" in2="effect1_dropShadow_134_29092" result="shape"/>
</filter>
</defs>
</svg>

