<svg width="250" height="250" viewBox="0 0 250 250" fill="none" xmlns="http://www.w3.org/2000/svg">
<g filter="url(#filter0_d_131_9285)">
<circle cx="124.65" cy="124.65" r="90" fill="black"/>
<circle cx="124.65" cy="124.65" r="89.6062" stroke="white" stroke-width="0.7875"/>
</g>
<g clip-path="url(#clip0_131_9285)">
<path d="M124.65 133.65C129.621 133.65 133.65 129.621 133.65 124.65C133.65 119.679 129.621 115.65 124.65 115.65C119.68 115.65 115.65 119.679 115.65 124.65C115.65 129.621 119.68 133.65 124.65 133.65Z" stroke="white" stroke-width="6" stroke-linecap="round" stroke-linejoin="round"/>
<path d="M146.85 133.65C146.451 134.555 146.332 135.559 146.508 136.532C146.685 137.505 147.149 138.403 147.84 139.11L148.02 139.29C148.578 139.847 149.021 140.509 149.323 141.237C149.625 141.966 149.78 142.747 149.78 143.535C149.78 144.324 149.625 145.104 149.323 145.833C149.021 146.561 148.578 147.223 148.02 147.78C147.463 148.338 146.801 148.78 146.073 149.082C145.345 149.384 144.564 149.54 143.775 149.54C142.987 149.54 142.206 149.384 141.478 149.082C140.749 148.78 140.088 148.338 139.53 147.78L139.35 147.6C138.643 146.908 137.745 146.444 136.772 146.268C135.799 146.092 134.795 146.211 133.89 146.61C133.003 146.99 132.246 147.622 131.713 148.427C131.18 149.232 130.894 150.175 130.89 151.14V151.65C130.89 153.241 130.258 154.767 129.133 155.893C128.008 157.018 126.482 157.65 124.89 157.65C123.299 157.65 121.773 157.018 120.648 155.893C119.523 154.767 118.89 153.241 118.89 151.65V151.38C118.867 150.387 118.546 149.424 117.968 148.616C117.39 147.808 116.583 147.193 115.65 146.85C114.746 146.451 113.742 146.332 112.769 146.508C111.795 146.684 110.897 147.148 110.19 147.84L110.01 148.02C109.453 148.578 108.791 149.02 108.063 149.322C107.335 149.624 106.554 149.78 105.765 149.78C104.977 149.78 104.196 149.624 103.468 149.322C102.739 149.02 102.078 148.578 101.52 148.02C100.963 147.463 100.52 146.801 100.218 146.073C99.9161 145.344 99.7607 144.564 99.7607 143.775C99.7607 142.987 99.9161 142.206 100.218 141.477C100.52 140.749 100.963 140.087 101.52 139.53L101.7 139.35C102.392 138.643 102.856 137.745 103.032 136.772C103.209 135.799 103.09 134.795 102.69 133.89C102.31 133.003 101.679 132.246 100.874 131.713C100.069 131.18 99.1258 130.894 98.1604 130.89H97.6504C96.0591 130.89 94.533 130.258 93.4078 129.133C92.2825 128.007 91.6504 126.481 91.6504 124.89C91.6504 123.299 92.2825 121.773 93.4078 120.647C94.533 119.522 96.0591 118.89 97.6504 118.89H97.9204C98.9134 118.867 99.8764 118.545 100.684 117.968C101.492 117.39 102.108 116.582 102.45 115.65C102.85 114.745 102.969 113.741 102.792 112.768C102.616 111.795 102.152 110.897 101.46 110.19L101.28 110.01C100.723 109.453 100.28 108.791 99.978 108.063C99.6761 107.334 99.5207 106.554 99.5207 105.765C99.5207 104.977 99.6761 104.196 99.978 103.467C100.28 102.739 100.723 102.077 101.28 101.52C101.838 100.962 102.499 100.52 103.228 100.218C103.956 99.9157 104.737 99.7603 105.525 99.7603C106.314 99.7603 107.095 99.9157 107.823 100.218C108.551 100.52 109.213 100.962 109.77 101.52L109.95 101.7C110.657 102.392 111.555 102.856 112.529 103.032C113.502 103.208 114.506 103.089 115.41 102.69H115.65C116.538 102.31 117.294 101.678 117.827 100.873C118.36 100.069 118.647 99.1254 118.65 98.16V97.65C118.65 96.0587 119.283 94.5326 120.408 93.4074C121.533 92.2822 123.059 91.65 124.65 91.65C126.242 91.65 127.768 92.2822 128.893 93.4074C130.018 94.5326 130.65 96.0587 130.65 97.65V97.92C130.654 98.8854 130.94 99.8286 131.473 100.633C132.006 101.438 132.763 102.07 133.65 102.45C134.555 102.849 135.559 102.968 136.532 102.792C137.505 102.616 138.403 102.152 139.11 101.46L139.29 101.28C139.848 100.722 140.509 100.28 141.238 99.9777C141.966 99.6757 142.747 99.5203 143.535 99.5203C144.324 99.5203 145.105 99.6757 145.833 99.9777C146.561 100.28 147.223 100.722 147.78 101.28C148.338 101.837 148.781 102.499 149.083 103.227C149.385 103.956 149.54 104.737 149.54 105.525C149.54 106.314 149.385 107.094 149.083 107.823C148.781 108.551 148.338 109.213 147.78 109.77L147.6 109.95C146.909 110.657 146.445 111.555 146.268 112.528C146.092 113.501 146.211 114.505 146.61 115.41V115.65C146.991 116.537 147.622 117.294 148.427 117.827C149.232 118.36 150.175 118.646 151.14 118.65H151.65C153.242 118.65 154.768 119.282 155.893 120.407C157.018 121.533 157.65 123.059 157.65 124.65C157.65 126.241 157.018 127.767 155.893 128.893C154.768 130.018 153.242 130.65 151.65 130.65H151.38C150.415 130.654 149.472 130.94 148.667 131.473C147.862 132.006 147.231 132.763 146.85 133.65Z" stroke="white" stroke-width="6" stroke-linecap="round" stroke-linejoin="round"/>
</g>
<defs>
<filter id="filter0_d_131_9285" x="0.000392914" y="2.67029e-05" width="249.3" height="249.3" filterUnits="userSpaceOnUse" color-interpolation-filters="sRGB">
<feFlood flood-opacity="0" result="BackgroundImageFix"/>
<feColorMatrix in="SourceAlpha" type="matrix" values="0 0 0 0 0 0 0 0 0 0 0 0 0 0 0 0 0 0 127 0" result="hardAlpha"/>
<feOffset/>
<feGaussianBlur stdDeviation="17.325"/>
<feComposite in2="hardAlpha" operator="out"/>
<feColorMatrix type="matrix" values="0 0 0 0 0 0 0 0 0 0 0 0 0 0 0 0 0 0 0.25 0"/>
<feBlend mode="normal" in2="BackgroundImageFix" result="effect1_dropShadow_131_9285"/>
<feBlend mode="normal" in="SourceGraphic" in2="effect1_dropShadow_131_9285" result="shape"/>
</filter>
<clipPath id="clip0_131_9285">
<rect width="72" height="72" fill="white" transform="translate(88.6504 88.65)"/>
</clipPath>
</defs>
</svg>

