<svg width="240" height="250" viewBox="0 0 240 250" fill="none" xmlns="http://www.w3.org/2000/svg">
<g filter="url(#filter0_d_131_9282)">
<circle cx="124.65" cy="124.65" r="90" fill="black"/>
<circle cx="124.65" cy="124.65" r="89.6062" stroke="white" stroke-width="0.7875"/>
</g>
<path d="M109.65 121.65V109.65C109.65 105.672 111.231 101.856 114.044 99.0434C116.857 96.2304 120.672 94.65 124.65 94.65C128.629 94.65 132.444 96.2304 135.257 99.0434C138.07 101.856 139.65 105.672 139.65 109.65V121.65M103.65 121.65H145.65C148.964 121.65 151.65 124.336 151.65 127.65V148.65C151.65 151.964 148.964 154.65 145.65 154.65H103.65C100.337 154.65 97.6504 151.964 97.6504 148.65V127.65C97.6504 124.336 100.337 121.65 103.65 121.65Z" stroke="white" stroke-width="6" stroke-linecap="round" stroke-linejoin="round"/>
<defs>
<filter id="filter0_d_131_9282" x="0.000392914" y="2.67029e-05" width="249.3" height="249.3" filterUnits="userSpaceOnUse" color-interpolation-filters="sRGB">
<feFlood flood-opacity="0" result="BackgroundImageFix"/>
<feColorMatrix in="SourceAlpha" type="matrix" values="0 0 0 0 0 0 0 0 0 0 0 0 0 0 0 0 0 0 127 0" result="hardAlpha"/>
<feOffset/>
<feGaussianBlur stdDeviation="17.325"/>
<feComposite in2="hardAlpha" operator="out"/>
<feColorMatrix type="matrix" values="0 0 0 0 0 0 0 0 0 0 0 0 0 0 0 0 0 0 0.25 0"/>
<feBlend mode="normal" in2="BackgroundImageFix" result="effect1_dropShadow_131_9282"/>
<feBlend mode="normal" in="SourceGraphic" in2="effect1_dropShadow_131_9282" result="shape"/>
</filter>
</defs>
</svg>

