<svg width="60" height="60" viewBox="0 0 60 60" fill="none" xmlns="http://www.w3.org/2000/svg">
<path d="M24.75 47.5C20.7083 47.5 17.2396 46.1875 14.3438 43.5625C11.4479 40.9375 10 37.6667 10 33.75C10 29.8333 11.4479 26.5625 14.3438 23.9375C17.2396 21.3125 20.7083 20 24.75 20H40.5L34 13.5L37.5 10L50 22.5L37.5 35L34 31.5L40.5 25H24.75C22.125 25 19.8438 25.8333 17.9063 27.5C15.9688 29.1667 15 31.25 15 33.75C15 36.25 15.9688 38.3333 17.9063 40C19.8438 41.6667 22.125 42.5 24.75 42.5H42.5V47.5H24.75Z" fill="white"/>
</svg>
