<svg width="60" height="60" viewBox="0 0 60 60" fill="none" xmlns="http://www.w3.org/2000/svg">
<path d="M17.5 47.5V42.5H35.25C37.875 42.5 40.1563 41.6667 42.0938 40C44.0313 38.3333 45 36.25 45 33.75C45 31.25 44.0313 29.1667 42.0938 27.5C40.1563 25.8333 37.875 25 35.25 25H19.5L26 31.5L22.5 35L10 22.5L22.5 10L26 13.5L19.5 20H35.25C39.2917 20 42.7604 21.3125 45.6562 23.9375C48.5521 26.5625 50 29.8333 50 33.75C50 37.6667 48.5521 40.9375 45.6562 43.5625C42.7604 46.1875 39.2917 47.5 35.25 47.5H17.5Z" fill="white"/>
</svg>
