<svg width="233" height="257" viewBox="0 0 233 257" fill="none" xmlns="http://www.w3.org/2000/svg">
<g filter="url(#filter0_i_168_1061)">
<path d="M101.253 12.0192C110.535 6.66025 121.971 6.66025 131.253 12.0192L209.506 57.1987C218.788 62.5577 224.506 72.4615 224.506 83.1795V173.538C224.506 184.256 218.788 194.16 209.506 199.519L131.253 244.699C121.971 250.058 110.535 250.058 101.253 244.699L22.9998 199.519C13.7177 194.16 7.99976 184.256 7.99976 173.538V83.1795C7.99976 72.4615 13.7177 62.5577 22.9998 57.1987L101.253 12.0192Z" fill="#008888"/>
</g>
<path d="M99.2529 8.55527C109.773 2.48175 122.733 2.48175 133.253 8.55527L211.506 53.735C222.025 59.8084 228.506 71.0323 228.506 83.1793V173.539C228.506 185.686 222.025 196.91 211.506 202.983L133.253 248.163C122.733 254.236 109.773 254.236 99.2529 248.163L21 202.983C10.4804 196.91 4.00007 185.686 4 173.539V83.1793C4.00007 71.0323 10.4804 59.8084 21 53.735L99.2529 8.55527Z" stroke="white" stroke-width="8"/>
<defs>
<filter id="filter0_i_168_1061" x="0" y="0" width="232.506" height="256.718" filterUnits="userSpaceOnUse" color-interpolation-filters="sRGB">
<feFlood flood-opacity="0" result="BackgroundImageFix"/>
<feBlend mode="normal" in="SourceGraphic" in2="BackgroundImageFix" result="shape"/>
<feColorMatrix in="SourceAlpha" type="matrix" values="0 0 0 0 0 0 0 0 0 0 0 0 0 0 0 0 0 0 127 0" result="hardAlpha"/>
<feOffset/>
<feGaussianBlur stdDeviation="50"/>
<feComposite in2="hardAlpha" operator="arithmetic" k2="-1" k3="1"/>
<feColorMatrix type="matrix" values="0 0 0 0 1 0 0 0 0 1 0 0 0 0 1 0 0 0 1 0"/>
<feBlend mode="normal" in2="shape" result="effect1_innerShadow_168_1061"/>
</filter>
</defs>
</svg>

